<svg width="24" height="24" viewBox="0 0 24 24" fill="none" xmlns="http://www.w3.org/2000/svg">
<g clip-path="url(#clip0_612_638)">
<path d="M12 2C6.47711 2 2 6.47711 2 12C2 17.5229 6.47711 22 12 22C17.5229 22 22 17.5229 22 12C22 6.47711 17.5229 2 12 2Z" fill="#40B3E0"/>
<path d="M16.8659 7.75235L15.0797 16.7577C15.0797 16.7577 14.8299 17.3823 14.143 17.0825L10.0213 13.9225L8.52252 13.1981L5.99955 12.3488C5.99955 12.3488 5.61236 12.2114 5.57486 11.9116C5.53736 11.6119 6.01205 11.4495 6.01205 11.4495L16.0414 7.51517C16.0414 7.51517 16.8658 7.15298 16.8658 7.75251" fill="white"/>
<path d="M9.70449 16.6566C9.70449 16.6566 9.58418 16.6454 9.43418 16.1707C9.28441 15.6961 8.52246 13.1981 8.52246 13.1981L14.5801 9.35121C14.5801 9.35121 14.9299 9.13887 14.9174 9.35121C14.9174 9.35121 14.9798 9.38871 14.7924 9.56355C14.6051 9.73848 10.0338 13.8476 10.0338 13.8476" fill="#D2E5F1"/>
<path d="M11.6017 15.1339L9.97146 16.6204C9.97146 16.6204 9.84396 16.7171 9.70459 16.6564L10.0168 13.8955" fill="#B5CFE4"/>
</g>
<defs>
<clipPath id="clip0_612_638">
<rect width="20" height="20" fill="white" transform="translate(2 2)"/>
</clipPath>
</defs>
</svg>
