<svg width="24" height="24" viewBox="0 0 24 24" fill="none" xmlns="http://www.w3.org/2000/svg">
<g clip-path="url(#clip0_612_647)">
<path d="M22.0005 12.0615C22.0005 6.50402 17.523 1.99902 12.0005 1.99902C6.47555 2.00027 1.99805 6.50402 1.99805 12.0628C1.99805 17.084 5.65555 21.2465 10.4355 22.0015V14.9703H7.89805V12.0628H10.438V9.84402C10.438 7.32277 11.9318 5.93027 14.2155 5.93027C15.3105 5.93027 16.4543 6.12652 16.4543 6.12652V8.60152H15.193C13.9518 8.60152 13.5643 9.37777 13.5643 10.174V12.0615H16.3368L15.8943 14.969H13.563V22.0003C18.343 21.2453 22.0005 17.0828 22.0005 12.0615Z" fill="#40B3E0"/>
</g>
<defs>
<clipPath id="clip0_612_647">
<rect width="20" height="20" fill="white" transform="translate(2 2)"/>
</clipPath>
</defs>
</svg>
