<svg width="18" height="18" viewBox="0 0 18 18" fill="none" xmlns="http://www.w3.org/2000/svg">
<path d="M16.81 8.76514C15.125 5.65014 12.17 3.76514 8.89999 3.76514C5.62999 3.76514 2.66999 5.65014 0.999985 8.76514L0.859985 9.00014L0.989985 9.24014C2.67499 12.3551 5.62999 14.2401 8.89999 14.2401C12.17 14.2401 15.13 12.3801 16.81 9.24014L16.94 9.00014L16.81 8.76514ZM8.89999 13.2151C6.08499 13.2151 3.49999 11.6451 1.99999 9.00014C3.49999 6.35514 6.08499 4.78514 8.89999 4.78514C11.715 4.78514 14.27 6.36014 15.795 9.00014C14.27 11.6451 11.71 13.2151 8.89999 13.2151Z" fill="#BDBDBD"/>
<path d="M9.04501 5.58505C8.36707 5.59 7.7058 5.79574 7.14472 6.17629C6.58365 6.55684 6.14793 7.09513 5.8926 7.72317C5.63727 8.35121 5.57378 9.04084 5.71016 9.70494C5.84654 10.369 6.17666 10.9778 6.65883 11.4544C7.14101 11.931 7.7536 12.254 8.41924 12.3827C9.08489 12.5113 9.77372 12.4398 10.3987 12.1772C11.0238 11.9145 11.557 11.4726 11.9309 10.9071C12.3049 10.3416 12.503 9.67801 12.5 9.00005C12.4981 8.54877 12.4071 8.10231 12.2322 7.68626C12.0574 7.27021 11.8022 6.89275 11.4813 6.5755C11.1603 6.25826 10.7799 6.00747 10.3618 5.83751C9.94378 5.66755 9.49629 5.58176 9.04501 5.58505ZM9.04501 11.4451C8.56614 11.4401 8.0994 11.2938 7.70342 11.0245C7.30744 10.7551 6.99987 10.3748 6.81934 9.93122C6.6388 9.48766 6.59336 9.00063 6.68872 8.53133C6.78408 8.06202 7.01598 7.63135 7.3553 7.29341C7.69462 6.95547 8.12624 6.72533 8.59593 6.63189C9.06562 6.53844 9.55246 6.58587 9.99528 6.76821C10.4381 6.95055 10.8172 7.25968 11.0849 7.65675C11.3526 8.05383 11.497 8.52116 11.5 9.00005C11.5013 9.32235 11.4387 9.64171 11.3157 9.93961C11.1926 10.2375 11.0117 10.508 10.7833 10.7355C10.555 10.9629 10.2837 11.1427 9.98531 11.2645C9.68692 11.3863 9.36731 11.4477 9.04501 11.4451Z" fill="#BDBDBD"/>
</svg>
