<svg aria-hidden="true" style="position: absolute; width: 0; height: 0; overflow: hidden;" version="1.1" xmlns="http://www.w3.org/2000/svg" xmlns:xlink="http://www.w3.org/1999/xlink">
<defs>
<symbol id="icon-eye" viewBox="0 0 20 20">
<path d="M10 4.4c-6.561 0-10 4.832-10 5.6 0 0.766 3.439 5.6 10 5.6s10-4.834 10-5.6c0-0.768-3.44-5.6-10-5.6zM10 14.307c-2.455 0-4.445-1.928-4.445-4.307s1.99-4.309 4.445-4.309c2.455 0 4.444 1.93 4.444 4.309s-1.989 4.307-4.444 4.307zM10 10c-0.407-0.447 0.663-2.154 0-2.154-1.228 0-2.223 0.965-2.223 2.154s0.995 2.154 2.223 2.154c1.227 0 2.223-0.965 2.223-2.154 0-0.547-1.877 0.379-2.223 0z"></path>
</symbol>
<symbol id="icon-chevron-right" viewBox="0 0 24 24">
<path d="M9.707 18.707l6-6c0.391-0.391 0.391-1.024 0-1.414l-6-6c-0.391-0.391-1.024-0.391-1.414 0s-0.391 1.024 0 1.414l5.293 5.293-5.293 5.293c-0.391 0.391-0.391 1.024 0 1.414s1.024 0.391 1.414 0z"></path>
</symbol>
<symbol id="icon-menu" viewBox="0 0 20 20">
<path d="M0 3h20v2h-20v-2zM0 9h20v2h-20v-2zM0 15h20v2h-20v-2z"></path>
</symbol>
<symbol id="icon-email">
<path d="M22.7997 17.4008V6.60078C22.7997 5.60478 21.9957 4.80078 20.9997 4.80078H4.1877C3.1917 4.80078 2.3877 5.60478 2.3877 6.60078V17.4008C2.3877 18.3968 3.1917 19.2008 4.1877 19.2008H20.9997C21.9957 19.2008 22.7997 18.3968 22.7997 17.4008ZM21.2277 6.46878C21.6237 6.86478 21.4077 7.27278 21.1917 7.47678L16.3197 11.9408L20.9997 16.8128C21.1437 16.9808 21.2397 17.2448 21.0717 17.4248C20.9157 17.6168 20.5557 17.6048 20.3997 17.4848L15.1557 13.0088L12.5877 15.3488L10.0317 13.0088L4.7877 17.4848C4.6317 17.6048 4.2717 17.6168 4.1157 17.4248C3.9477 17.2448 4.0437 16.9808 4.1877 16.8128L8.8677 11.9408L3.9957 7.47678C3.7797 7.27278 3.5637 6.86478 3.9597 6.46878C4.3557 6.07278 4.7637 6.26478 5.0997 6.55278L12.5877 12.6008L20.0877 6.55278C20.4237 6.26478 20.8317 6.07278 21.2277 6.46878Z" fill="black"/>
</symbol>
<symbol id="icon-instagram">
<path d="M11.9991 8.87726C10.2788 8.87726 8.87492 10.2812 8.87492 12.0015C8.87492 13.7218 10.2788 15.1257 11.9991 15.1257C13.7194 15.1257 15.1234 13.7218 15.1234 12.0015C15.1234 10.2812 13.7194 8.87726 11.9991 8.87726ZM21.3694 12.0015C21.3694 10.7077 21.3812 9.4257 21.3085 8.13429C21.2359 6.63429 20.8937 5.30304 19.7968 4.20617C18.6976 3.10695 17.3687 2.7671 15.8687 2.69445C14.5749 2.62179 13.2929 2.63351 12.0015 2.63351C10.7077 2.63351 9.4257 2.62179 8.13429 2.69445C6.63429 2.7671 5.30304 3.10929 4.20617 4.20617C3.10695 5.30538 2.7671 6.63429 2.69445 8.13429C2.62179 9.42804 2.63351 10.7101 2.63351 12.0015C2.63351 13.2929 2.62179 14.5773 2.69445 15.8687C2.7671 17.3687 3.10929 18.6999 4.20617 19.7968C5.30538 20.896 6.63429 21.2359 8.13429 21.3085C9.42804 21.3812 10.7101 21.3694 12.0015 21.3694C13.2952 21.3694 14.5773 21.3812 15.8687 21.3085C17.3687 21.2359 18.6999 20.8937 19.7968 19.7968C20.896 18.6976 21.2359 17.3687 21.3085 15.8687C21.3835 14.5773 21.3694 13.2952 21.3694 12.0015ZM11.9991 16.8085C9.33898 16.8085 7.1921 14.6616 7.1921 12.0015C7.1921 9.34132 9.33898 7.19445 11.9991 7.19445C14.6593 7.19445 16.8062 9.34132 16.8062 12.0015C16.8062 14.6616 14.6593 16.8085 11.9991 16.8085ZM17.003 8.12023C16.3819 8.12023 15.8804 7.61867 15.8804 6.99757C15.8804 6.37648 16.3819 5.87492 17.003 5.87492C17.6241 5.87492 18.1257 6.37648 18.1257 6.99757C18.1259 7.14505 18.097 7.29112 18.0406 7.42741C17.9843 7.5637 17.9016 7.68754 17.7973 7.79182C17.693 7.89611 17.5692 7.9788 17.4329 8.03515C17.2966 8.0915 17.1505 8.12041 17.003 8.12023Z" fill="black"/>
</symbol>
<symbol id="icon-whatsapp">
<path d="M20.1597 6.84024C17.2797 2.40024 11.3997 1.08024 6.83974 3.84024C2.39974 6.60024 0.959735 12.6002 3.83974 17.0402L4.07974 17.4002L3.11974 21.0002L6.71974 20.0402L7.07974 20.2802C8.63974 21.1202 10.3197 21.6002 11.9997 21.6002C13.7997 21.6002 15.5997 21.1202 17.1597 20.1602C21.5997 17.2802 22.9197 11.4002 20.1597 6.84024ZM17.6397 16.0802C17.1597 16.8002 16.5597 17.2802 15.7197 17.4002C15.2397 17.4002 14.6397 17.6402 12.2397 16.6802C10.1997 15.7202 8.51974 14.1602 7.31974 12.3602C6.59974 11.5202 6.23974 10.4402 6.11974 9.36024C6.11974 8.40024 6.47974 7.56024 7.07974 6.96024C7.31974 6.72024 7.55974 6.60024 7.79974 6.60024H8.39974C8.63974 6.60024 8.87974 6.60024 8.99974 7.08024C9.23974 7.68024 9.83974 9.12024 9.83974 9.24024C9.95974 9.36024 9.95974 9.60024 9.83974 9.72024C9.95974 9.96025 9.83974 10.2002 9.71974 10.3202C9.59974 10.4402 9.47974 10.6802 9.35974 10.8002C9.11974 10.9202 8.99974 11.1602 9.11974 11.4002C9.59974 12.1202 10.1997 12.8402 10.7997 13.4402C11.5197 14.0402 12.2397 14.5202 13.0797 14.8802C13.3197 15.0002 13.5597 15.0002 13.6797 14.7602C13.7997 14.5202 14.3997 13.9202 14.6397 13.6802C14.8797 13.4402 14.9997 13.4402 15.2397 13.5602L17.1597 14.5202C17.3997 14.6402 17.6397 14.7602 17.7597 14.8802C17.8797 15.2402 17.8797 15.7202 17.6397 16.0802Z" fill="black"/>
</symbol>
<symbol id="icon-linkedin">
<path fill-rule="evenodd" clip-rule="evenodd" d="M1 2.838C1 2.35053 1.19365 1.88303 1.53834 1.53834C1.88303 1.19365 2.35053 1 2.838 1H21.16C21.4016 0.999608 21.6409 1.04687 21.8641 1.13907C22.0874 1.23127 22.2903 1.36661 22.4612 1.53734C22.6322 1.70807 22.7677 1.91083 22.8602 2.13401C22.9526 2.3572 23.0001 2.59643 23 2.838V21.16C23.0003 21.4016 22.9529 21.6409 22.8606 21.8642C22.7683 22.0875 22.6328 22.2904 22.462 22.4613C22.2912 22.6322 22.0884 22.7678 21.8651 22.8602C21.6419 22.9526 21.4026 23.0001 21.161 23H2.838C2.59655 23 2.35746 22.9524 2.1344 22.86C1.91134 22.7676 1.70867 22.6321 1.53798 22.4613C1.3673 22.2905 1.23193 22.0878 1.13962 21.8647C1.04731 21.6416 0.999869 21.4025 1 21.161V2.838ZM9.708 9.388H12.687V10.884C13.117 10.024 14.217 9.25 15.87 9.25C19.039 9.25 19.79 10.963 19.79 14.106V19.928H16.583V14.822C16.583 13.032 16.153 12.022 15.061 12.022C13.546 12.022 12.916 13.111 12.916 14.822V19.928H9.708V9.388ZM4.208 19.791H7.416V9.25H4.208V19.79V19.791ZM7.875 5.812C7.88105 6.08668 7.83217 6.35979 7.73124 6.61532C7.63031 6.87084 7.47935 7.10364 7.28723 7.30003C7.09511 7.49643 6.8657 7.65248 6.61246 7.75901C6.35921 7.86554 6.08724 7.92042 5.8125 7.92042C5.53776 7.92042 5.26579 7.86554 5.01255 7.75901C4.7593 7.65248 4.52989 7.49643 4.33777 7.30003C4.14565 7.10364 3.99469 6.87084 3.89376 6.61532C3.79283 6.35979 3.74395 6.08668 3.75 5.812C3.76187 5.27286 3.98439 4.75979 4.36989 4.38269C4.75539 4.00558 5.27322 3.79442 5.8125 3.79442C6.35178 3.79442 6.86961 4.00558 7.25512 4.38269C7.64062 4.75979 7.86313 5.27286 7.875 5.812Z" fill="black"/>
</symbol>
</defs>
</svg>
